<?xml version="1.0" encoding="utf-8"?>
<!-- Generator: Adobe Illustrator 16.0.0, SVG Export Plug-In . SVG Version: 6.00 Build 0)  -->
<!DOCTYPE svg PUBLIC "-//W3C//DTD SVG 1.1//EN" "http://www.w3.org/Graphics/SVG/1.1/DTD/svg11.dtd">
<svg version="1.1" id="Capa_1" xmlns="http://www.w3.org/2000/svg" xmlns:xlink="http://www.w3.org/1999/xlink" x="0px" y="0px"
	 width="257px" height="245.897px" viewBox="0 0 257 245.897" enable-background="new 0 0 257 245.897" xml:space="preserve">
<g>
	<ellipse fill="#FFFFFF" cx="126.45" cy="126.44" rx="117.45" ry="119.457"/>
	<g>
		<path fill="#BBCA98" d="M33.145,105.768c0,1.598-1.291,2.893-2.888,2.893c-1.6,0-2.896-1.295-2.896-2.893
			c0-1.592,1.296-2.893,2.896-2.893C31.854,102.875,33.145,104.176,33.145,105.768z"/>
		<path fill="#648C1A" d="M45.096,90.948L43.6,95.163l-16.226-5.73l-1.471,4.17l-3.784-1.334l4.463-12.615l3.776,1.342l-1.489,4.221
			L45.096,90.948z"/>
		<path fill="#648C1A" d="M35.039,63.51l12.333,6.771c1.07,0.584,1.895,1.166,2.488,1.766c0.593,0.592,1.044,1.275,1.334,2.064
			c0.354,0.922,0.479,1.953,0.361,3.063c-0.104,1.117-0.438,2.178-0.986,3.195c-0.419,0.746-0.909,1.412-1.47,1.973
			c-0.561,0.549-1.181,1.006-1.855,1.35c-0.679,0.34-1.387,0.561-2.123,0.65c-0.444,0.064-0.929,0.057-1.449-0.006
			c-0.51-0.066-1.019-0.188-1.522-0.379c-0.502-0.189-1.108-0.473-1.805-0.859l-12.339-6.764l2.14-3.904l12.475,6.838
			c0.839,0.463,1.527,0.691,2.043,0.684c0.433-0.008,0.852-0.15,1.284-0.434c0.431-0.283,0.773-0.656,1.031-1.115
			c0.277-0.514,0.413-1.037,0.406-1.572c-0.006-0.533-0.162-0.984-0.464-1.367c-0.291-0.393-0.807-0.793-1.554-1.211l-12.468-6.834
			L35.039,63.51z"/>
		<path fill="#648C1A" d="M37.747,59.559l3.475-4.34c0.671-0.838,1.25-1.484,1.747-1.953c0.496-0.465,0.979-0.807,1.45-1.025
			c0.948-0.451,1.908-0.586,2.855-0.432c0.961,0.16,1.89,0.605,2.812,1.35c0.967,0.766,1.598,1.584,1.901,2.441
			c0.303,0.852,0.303,1.869-0.006,3.051c0.398-0.215,0.779-0.35,1.146-0.395c0.369-0.039,0.845,0.014,1.438,0.16
			c0.594,0.148,1.341,0.381,2.243,0.717c1.489,0.527,2.739,0.916,3.745,1.186c1.012,0.258,2.102,0.471,3.249,0.619l-3.326,4.158
			c-0.967-0.266-1.851-0.568-2.637-0.91L56.384,63.6c-1.334-0.547-2.353-0.916-3.048-1.104c-0.69-0.18-1.245-0.217-1.652-0.102
			c-0.399,0.115-0.772,0.387-1.108,0.805l-0.438,0.549l6.968,5.574l-2.791,3.479L37.747,59.559z M43.606,58.526l3.501,2.807
			l0.703-0.885c1.076-1.348,1.024-2.494-0.155-3.436c-0.567-0.451-1.128-0.631-1.676-0.543c-0.555,0.078-1.058,0.414-1.521,0.992
			L43.606,58.526z"/>
		<path fill="#648C1A" d="M63.7,61.59L48.777,46.53l3.159-3.141l14.936,15.068L63.7,61.59z"/>
		<path fill="#648C1A" d="M62.56,35.139l2.593,3.197c-0.807,0.129-1.477,0.297-2.006,0.521c-0.535,0.213-1.05,0.521-1.528,0.908
			c-0.579,0.471-0.94,0.967-1.102,1.494c-0.147,0.518-0.065,0.982,0.257,1.389c0.233,0.289,0.522,0.453,0.871,0.482
			c0.342,0.033,0.967-0.025,1.876-0.188c2.303-0.432,3.882-0.625,4.737-0.584c1.755,0.063,3.237,0.842,4.443,2.332
			c0.876,1.084,1.405,2.262,1.579,3.527c0.174,1.264-0.013,2.512-0.567,3.727c-0.548,1.217-1.417,2.307-2.604,3.262
			c-0.67,0.535-1.328,0.967-1.979,1.291c-0.651,0.313-1.482,0.615-2.515,0.914l-2.837-3.52c1.059-0.182,1.934-0.414,2.63-0.689
			c0.703-0.266,1.31-0.613,1.825-1.033c0.529-0.412,0.915-0.889,1.187-1.406c0.271-0.521,0.386-1.031,0.341-1.539
			c-0.038-0.518-0.231-0.988-0.567-1.398c-0.399-0.492-0.884-0.789-1.456-0.898c-0.574-0.096-1.438-0.037-2.598,0.195
			c-1.304,0.246-2.187,0.404-2.663,0.457c-0.483,0.059-0.974,0.078-1.477,0.078c-1.451-0.02-2.676-0.658-3.662-1.883
			c-0.69-0.852-1.108-1.807-1.25-2.861c-0.149-1.064,0.013-2.109,0.465-3.135c0.457-1.033,1.159-1.92,2.094-2.688
			C59.698,36.247,61,35.59,62.56,35.139z"/>
		<path fill="#648C1A" d="M81.171,23.141l10.361,18.508l-3.888,2.182l-6.865-12.25l-0.401,7.008l-6.183-3.318l6.861,12.246
			l-3.921,2.193L66.776,31.2l3.919-2.2l6.002,3.029l0.582-6.711L81.171,23.141z"/>
		<path fill="#648C1A" d="M105.405,25.893c0.521,1.586,0.792,3.102,0.824,4.547c0.046,1.436-0.159,2.719-0.591,3.854
			c-0.448,1.135-1.117,2.121-2.026,2.951c-0.914,0.84-2.019,1.465-3.319,1.883c-1.264,0.42-2.508,0.549-3.707,0.395
			c-1.199-0.146-2.314-0.555-3.327-1.225c-1.014-0.662-1.926-1.588-2.733-2.752c-0.806-1.168-1.463-2.541-1.978-4.113
			c-0.517-1.586-0.794-3.088-0.819-4.52c-0.032-1.418,0.173-2.701,0.606-3.861c0.438-1.16,1.103-2.146,1.986-2.973
			c0.895-0.83,1.964-1.451,3.254-1.863c1.297-0.418,2.54-0.566,3.745-0.426c1.194,0.148,2.314,0.555,3.34,1.219
			c1.031,0.658,1.954,1.586,2.767,2.754C104.23,22.928,104.901,24.307,105.405,25.893z M100.905,27.305
			c-0.445-1.367-0.981-2.475-1.618-3.346c-0.631-0.865-1.341-1.463-2.114-1.799c-0.78-0.334-1.568-0.375-2.366-0.107
			c-0.818,0.256-1.438,0.752-1.85,1.488c-0.425,0.723-0.626,1.65-0.614,2.752c0.014,1.109,0.239,2.359,0.69,3.746
			c0.425,1.316,0.968,2.41,1.605,3.275c0.639,0.867,1.341,1.469,2.115,1.803c0.773,0.338,1.552,0.371,2.34,0.125
			c1.23-0.406,2.005-1.303,2.332-2.723C101.741,31.122,101.569,29.385,100.905,27.305z"/>
		<path fill="#648C1A" d="M121.476,13.917l0.396,4.08c-0.744-0.334-1.395-0.555-1.969-0.664c-0.561-0.121-1.153-0.148-1.771-0.084
			c-0.742,0.07-1.323,0.283-1.748,0.631c-0.411,0.355-0.601,0.789-0.548,1.309c0.039,0.367,0.187,0.666,0.458,0.891
			c0.27,0.213,0.824,0.51,1.67,0.869c2.152,0.912,3.589,1.619,4.279,2.123c1.431,1.02,2.244,2.482,2.424,4.396
			c0.136,1.387-0.077,2.662-0.632,3.814c-0.549,1.148-1.385,2.084-2.52,2.787c-1.142,0.715-2.464,1.139-3.984,1.289
			c-0.852,0.084-1.638,0.084-2.353-0.012c-0.724-0.092-1.586-0.299-2.611-0.615l-0.425-4.498c0.979,0.418,1.842,0.715,2.578,0.875
			c0.728,0.156,1.432,0.207,2.095,0.137c0.662-0.059,1.252-0.232,1.761-0.518c0.509-0.283,0.89-0.65,1.134-1.096
			c0.251-0.457,0.349-0.947,0.297-1.482c-0.058-0.631-0.305-1.146-0.722-1.551c-0.419-0.402-1.182-0.82-2.271-1.279
			c-1.231-0.502-2.049-0.861-2.476-1.084c-0.432-0.211-0.856-0.461-1.275-0.736c-1.188-0.82-1.863-2.02-2.019-3.596
			c-0.104-1.088,0.078-2.119,0.549-3.07c0.457-0.971,1.165-1.75,2.114-2.355c0.941-0.611,2.023-0.969,3.231-1.082
			C118.473,13.26,119.923,13.438,121.476,13.917z"/>
		<path fill="#648C1A" d="M143.143,24.762c-0.121,1.66-0.436,3.162-0.944,4.514c-0.511,1.344-1.175,2.459-2.013,3.34
			c-0.832,0.885-1.824,1.549-2.983,1.977c-1.161,0.43-2.42,0.592-3.78,0.488c-1.339-0.09-2.533-0.432-3.589-1.02
			c-1.058-0.592-1.935-1.385-2.619-2.398c-0.694-0.992-1.197-2.189-1.507-3.57c-0.311-1.385-0.406-2.9-0.289-4.559
			c0.128-1.658,0.436-3.15,0.946-4.486c0.504-1.328,1.181-2.451,2.019-3.359c0.838-0.9,1.825-1.572,2.952-1.998
			c1.136-0.438,2.37-0.611,3.713-0.504c1.368,0.092,2.579,0.439,3.636,1.014c1.058,0.582,1.94,1.379,2.648,2.385
			c0.704,1.006,1.211,2.213,1.521,3.592C143.164,21.569,143.26,23.088,143.143,24.762z M138.424,24.374
			c0.108-1.426,0.028-2.656-0.236-3.695c-0.266-1.039-0.689-1.852-1.285-2.455c-0.59-0.607-1.309-0.936-2.146-0.994
			c-0.856-0.063-1.61,0.162-2.274,0.672c-0.664,0.527-1.198,1.301-1.599,2.326c-0.405,1.031-0.672,2.27-0.772,3.713
			c-0.098,1.387-0.014,2.598,0.25,3.643c0.271,1.031,0.697,1.855,1.289,2.457c0.586,0.598,1.295,0.928,2.121,0.986
			c1.291,0.096,2.349-0.451,3.179-1.625C137.777,28.213,138.271,26.543,138.424,24.374z"/>
		<path fill="#648C1A" d="M157.307,17.997l-0.965,3.996c-0.588-0.561-1.141-0.984-1.639-1.283c-0.502-0.283-1.057-0.51-1.662-0.65
			c-0.723-0.174-1.348-0.16-1.857,0.027c-0.512,0.199-0.826,0.551-0.947,1.049c-0.092,0.367-0.038,0.691,0.144,0.986
			c0.187,0.299,0.625,0.762,1.308,1.379c1.748,1.561,2.871,2.703,3.358,3.408c1.013,1.436,1.297,3.078,0.853,4.951
			c-0.33,1.35-0.943,2.492-1.844,3.402c-0.896,0.908-1.998,1.508-3.302,1.822c-1.303,0.305-2.702,0.271-4.18-0.084
			c-0.839-0.205-1.583-0.469-2.229-0.787c-0.646-0.328-1.393-0.799-2.257-1.436l1.063-4.404c0.791,0.729,1.51,1.283,2.154,1.67
			c0.643,0.395,1.286,0.664,1.934,0.824c0.656,0.158,1.269,0.188,1.843,0.08c0.571-0.104,1.049-0.324,1.431-0.666
			c0.389-0.35,0.639-0.779,0.77-1.307c0.146-0.609,0.09-1.182-0.188-1.697c-0.267-0.514-0.851-1.166-1.75-1.953
			c-0.992-0.877-1.65-1.49-1.986-1.83c-0.334-0.344-0.649-0.717-0.959-1.121c-0.857-1.176-1.104-2.514-0.729-4.049
			c0.258-1.063,0.76-1.973,1.516-2.74c0.746-0.752,1.676-1.264,2.77-1.529c1.096-0.264,2.232-0.25,3.406,0.033
			C154.678,16.403,155.992,17.042,157.307,17.997z"/>
		<path fill="#648C1A" d="M161.902,41.54l-4.137-1.643l6.344-15.98l-4.113-1.641l1.48-3.725l12.418,4.926l-1.48,3.73l-4.166-1.654
			L161.902,41.54z"/>
		<path fill="#648C1A" d="M176.557,49.307l-10.264-5.943l10.625-18.354l10.262,5.938l-2.016,3.488l-6.396-3.709l-1.979,3.412
			l6.232,3.596l-2.023,3.496l-6.229-3.611l-2.599,4.5l6.401,3.699L176.557,49.307z"/>
		<path fill="#648C1A" d="M188.877,59.206l-3.127-2.574l2.262-10.199c0.066-0.289,0.215-0.807,0.42-1.559
			c0.205-0.754,0.394-1.389,0.566-1.91c-0.547,0.715-0.869,1.137-0.967,1.246l-0.439,0.533l-6.574,7.982l-3.463-2.842l13.508-16.369
			l3.642,3.01l-2.101,9.051c-0.221,1.02-0.498,2.102-0.826,3.262c0.482-0.676,0.896-1.219,1.23-1.635l5.932-7.188l3.433,2.826
			L188.877,59.206z"/>
		<path fill="#648C1A" d="M189.572,60.28l15.4-14.594l3.057,3.234l-15.4,14.59L189.572,60.28z"/>
		<path fill="#648C1A" d="M210.523,51.504l3.778,5c0.979,1.287,1.548,2.32,1.728,3.092c0.193,0.916,0.123,1.795-0.225,2.611
			c-0.351,0.82-0.941,1.547-1.779,2.193c-0.748,0.561-1.517,0.922-2.31,1.063c-0.793,0.137-1.631,0.082-2.521-0.176
			c0.529,2.457-0.277,4.494-2.404,6.102c-0.619,0.471-1.27,0.83-1.955,1.068c-0.68,0.254-1.365,0.375-2.049,0.381
			c-0.682,0.014-1.332-0.096-1.947-0.322c-0.525-0.205-1.029-0.516-1.502-0.934c-0.465-0.406-1.031-1.053-1.693-1.938l-4.043-5.336
			L210.523,51.504z M203.75,62.208l-4.262,3.23l0.998,1.305c1.096,1.449,2.367,1.621,3.811,0.52
			c1.398-1.045,1.541-2.301,0.443-3.744L203.75,62.208z M210.066,57.424l-3.295,2.502l0.934,1.232
			c0.42,0.561,0.898,0.875,1.406,0.951c0.504,0.074,1.045-0.096,1.6-0.514c1.064-0.807,1.186-1.752,0.369-2.838L210.066,57.424z"/>
		<path fill="#648C1A" d="M207.248,85.268l-5.412-9.785l18.578-10.275l2.16,3.912l-15.068,8.33l3.258,5.883L207.248,85.268z"/>
		<path fill="#648C1A" d="M211.607,96.594l-4.262-11.076l19.817-7.605l4.254,11.07l-3.767,1.449l-2.647-6.904l-3.694,1.41
			l2.586,6.719l-3.767,1.443l-2.578-6.717l-4.842,1.863l2.655,6.904L211.607,96.594z"/>
		<path fill="#94705D" d="M33.705,121.75l-1.915-0.072c0.251-0.373,0.444-0.723,0.561-1.031c0.117-0.308,0.194-0.627,0.206-0.961
			c0.021-0.611-0.122-1.166-0.444-1.676c-0.322-0.504-0.774-0.9-1.367-1.213c-0.594-0.295-1.263-0.465-2.012-0.488
			c-0.74-0.031-1.417,0.076-2.036,0.316c-0.613,0.25-1.099,0.604-1.458,1.074c-0.366,0.471-0.56,0.994-0.579,1.607
			c-0.013,0.361,0.025,0.713,0.135,1.07c0.098,0.354,0.258,0.701,0.465,1.031l-1.896-0.084c-0.303-0.711-0.452-1.424-0.415-2.148
			c0.034-0.896,0.318-1.693,0.831-2.398c0.525-0.693,1.23-1.232,2.117-1.609c0.883-0.363,1.863-0.537,2.933-0.484
			c0.781,0.031,1.516,0.182,2.193,0.438c0.678,0.277,1.27,0.625,1.771,1.076c0.491,0.451,0.866,0.973,1.123,1.561
			c0.258,0.592,0.373,1.215,0.341,1.883c-0.013,0.369-0.064,0.711-0.147,1.025C34.027,120.991,33.893,121.348,33.705,121.75z"/>
		<path fill="#94705D" d="M34.034,122.903l0.237,5.867l-1.663,0.059l-0.167-4.279l-2.482,0.102l0.162,4.234l-1.671,0.066l-0.16-4.25
			l-3.426,0.143l0.169,4.287l-1.691,0.064l-0.229-5.867L34.034,122.903z"/>
		<path fill="#94705D" d="M34.35,130.157l0.387,3.066c0.122,1.008-0.02,1.785-0.413,2.354c-0.405,0.561-1.058,0.896-1.973,1.006
			c-0.665,0.086-1.238-0.004-1.701-0.258c-0.477-0.258-0.825-0.668-1.051-1.236c-0.143,0.359-0.316,0.635-0.523,0.824
			c-0.206,0.211-0.586,0.451-1.121,0.742c-0.477,0.244-0.953,0.521-1.444,0.828c-0.495,0.295-0.908,0.551-1.225,0.781
			c-0.319,0.232-0.605,0.459-0.854,0.678l-0.242-1.973c0.212-0.154,0.444-0.295,0.684-0.432c0.237-0.135,0.657-0.348,1.257-0.646
			l0.852-0.43c0.554-0.27,0.954-0.516,1.218-0.734c0.265-0.215,0.433-0.465,0.496-0.742c0.078-0.279,0.09-0.639,0.026-1.098
			l-0.052-0.451l-4.964,0.615l-0.193-1.563L34.35,130.157z M30.242,132.245l0.162,1.303c0.064,0.539,0.218,0.928,0.476,1.152
			c0.253,0.232,0.613,0.322,1.091,0.266c0.471-0.064,0.8-0.238,0.979-0.521c0.18-0.277,0.239-0.711,0.168-1.271l-0.155-1.256
			L30.242,132.245z"/>
		<path fill="#94705D" d="M35.296,137.534l1.388,6.682l-1.645,0.334l-0.528-2.553l-9.058,1.877l-0.323-1.541l9.058-1.875
			l-0.534-2.578L35.296,137.534z"/>
		<path fill="#94705D" d="M37.418,146.788l-10.553,2.832l-0.406-1.52l10.553-2.828L37.418,146.788z"/>
		<path fill="#94705D" d="M37.883,148.489l1.772,5.396l-1.592,0.523l-1.283-3.889l-2.354,0.775l1.271,3.84l-1.599,0.531
			l-1.271-3.844l-4.841,1.592l-0.49-1.496L37.883,148.489z"/>
		<path fill="#94705D" d="M40.789,156.743l-10.167,4.002l-0.566-1.455l10.16-4.004L40.789,156.743z"/>
		<path fill="#94705D" d="M43.794,164.221l-1.729,0.805c0.052-0.449,0.059-0.84,0.026-1.166c-0.038-0.336-0.123-0.65-0.265-0.947
			c-0.257-0.563-0.638-0.988-1.153-1.283c-0.522-0.311-1.116-0.459-1.772-0.453c-0.671,0-1.342,0.162-2.02,0.477
			c-0.669,0.311-1.224,0.717-1.662,1.213c-0.433,0.512-0.696,1.043-0.812,1.625c-0.109,0.58-0.034,1.148,0.219,1.689
			c0.16,0.336,0.36,0.631,0.613,0.902c0.263,0.266,0.553,0.498,0.889,0.689l-1.721,0.805c-0.595-0.502-1.052-1.07-1.349-1.727
			c-0.38-0.807-0.496-1.65-0.354-2.514c0.143-0.85,0.522-1.656,1.142-2.4c0.612-0.732,1.411-1.34,2.372-1.779
			c0.722-0.34,1.438-0.541,2.16-0.609c0.729-0.072,1.418-0.027,2.063,0.146c0.651,0.174,1.226,0.463,1.722,0.877
			c0.496,0.408,0.883,0.908,1.167,1.51c0.147,0.334,0.264,0.664,0.342,0.992C43.742,163.395,43.78,163.776,43.794,164.221z"/>
		<path fill="#94705D" d="M45.882,167.36l0.903,1.564l-7.729,8.514l-0.838-1.479l2.861-3.094l-1.476-2.578l-4.139,0.881
			l-0.825-1.451L45.882,167.36z M42.26,171.659l1.296-1.379c0.342-0.365,0.747-0.787,1.225-1.264
			c-0.445,0.141-1.006,0.283-1.696,0.445l-1.843,0.42L42.26,171.659z"/>
		<path fill="#94705D" d="M52.239,177.831l-1.567,1.09c-0.025-0.459-0.077-0.848-0.161-1.162c-0.096-0.318-0.237-0.611-0.425-0.889
			c-0.35-0.5-0.807-0.859-1.367-1.063c-0.554-0.221-1.159-0.268-1.818-0.143c-0.651,0.111-1.295,0.391-1.901,0.809
			c-0.611,0.422-1.09,0.92-1.432,1.49c-0.341,0.568-0.521,1.148-0.521,1.742c-0.007,0.588,0.155,1.119,0.503,1.623
			c0.206,0.297,0.458,0.555,0.761,0.773c0.304,0.219,0.632,0.395,0.987,0.543l-1.555,1.072c-0.677-0.377-1.219-0.865-1.631-1.459
			c-0.517-0.734-0.773-1.541-0.773-2.416c-0.014-0.881,0.226-1.723,0.716-2.563c0.482-0.832,1.154-1.559,2.037-2.166
			c0.646-0.438,1.321-0.766,2.017-0.967c0.704-0.193,1.387-0.256,2.058-0.199c0.67,0.066,1.282,0.254,1.842,0.566
			c0.563,0.32,1.021,0.742,1.399,1.293c0.214,0.301,0.388,0.605,0.504,0.914C52.039,177.022,52.142,177.395,52.239,177.831z"/>
		<path fill="#94705D" d="M54.34,179.952l-8.593,6.734l-0.98-1.234l8.606-6.754L54.34,179.952z"/>
		<path fill="#94705D" d="M57.248,191.485c-0.605,0.545-1.257,0.967-1.922,1.262c-0.676,0.295-1.348,0.463-2.018,0.49
			c-0.663,0.041-1.296-0.066-1.902-0.305c-0.593-0.232-1.121-0.604-1.571-1.107c-0.594-0.656-0.961-1.422-1.078-2.287
			c-0.121-0.865-0.006-1.744,0.354-2.633c0.369-0.873,0.954-1.674,1.747-2.402c0.788-0.709,1.639-1.207,2.561-1.496
			c0.921-0.283,1.812-0.328,2.655-0.129c0.852,0.199,1.566,0.623,2.167,1.289c0.6,0.664,0.967,1.43,1.095,2.295
			c0.123,0.871,0,1.738-0.36,2.623C58.608,189.973,58.035,190.762,57.248,191.485z M56.12,190.276
			c0.425-0.379,0.773-0.791,1.03-1.223c0.265-0.445,0.438-0.883,0.511-1.336c0.076-0.438,0.058-0.871-0.059-1.289
			c-0.116-0.406-0.323-0.785-0.625-1.115c-0.4-0.439-0.871-0.721-1.432-0.838c-0.555-0.117-1.147-0.064-1.768,0.148
			c-0.624,0.213-1.224,0.58-1.797,1.109c-0.87,0.777-1.393,1.637-1.561,2.559c-0.161,0.922,0.052,1.727,0.67,2.398
			c0.395,0.434,0.87,0.707,1.432,0.832c0.573,0.121,1.161,0.078,1.792-0.148C54.945,191.163,55.553,190.792,56.12,190.276z"/>
		<path fill="#94705D" d="M61.831,188.352l1.264,1.133l-1.799,7.33c-0.019,0.105-0.031,0.174-0.051,0.238
			c-0.013,0.064-0.02,0.1-0.025,0.1l-0.104,0.328l-0.077,0.348c-0.014,0.029-0.026,0.074-0.039,0.111
			c-0.013,0.047-0.02,0.094-0.033,0.143c-0.013,0.056-0.024,0.104-0.037,0.146c0.398-0.535,0.811-1.051,1.25-1.521l3.997-4.424
			l1.167,1.051l-7.33,8.109l-1.166-1.055l1.585-6.492l0.148-0.529l0.187-0.652l0.175-0.619l0.187-0.697
			c-0.207,0.246-0.349,0.42-0.432,0.502l-0.394,0.449l-0.393,0.461c-0.078,0.088-0.221,0.246-0.42,0.473l-3.822,4.229l-1.174-1.057
			L61.831,188.352z"/>
		<path fill="#94705D" d="M70.852,196.075l2.476,1.754c0.43,0.3,0.766,0.623,1.024,0.97c0.251,0.355,0.412,0.726,0.489,1.109
			c0.071,0.396,0.039,0.787-0.069,1.193c-0.118,0.412-0.324,0.83-0.626,1.258c-0.389,0.553-0.826,0.959-1.31,1.211
			c-0.483,0.258-0.993,0.359-1.527,0.289c-0.536-0.055-1.077-0.289-1.618-0.678l-1.29-0.908l-2.571,3.637L64.546,205L70.852,196.075
			z M69.362,200.913l1.076,0.758c0.521,0.375,0.967,0.527,1.341,0.494c0.38-0.045,0.729-0.291,1.05-0.752
			c0.316-0.438,0.426-0.846,0.343-1.229c-0.091-0.373-0.381-0.727-0.876-1.082l-1.104-0.779L69.362,200.913z"/>
		<path fill="#94705D" d="M79.045,201.54l1.573,0.922l-2.463,11.213l-1.471-0.856l0.947-4.123l-2.559-1.493l-3.153,2.832
			l-1.443-0.847L79.045,201.54z M78.052,207.071l0.432-1.838c0.116-0.488,0.258-1.049,0.438-1.701
			c-0.322,0.334-0.735,0.754-1.25,1.217l-1.387,1.285L78.052,207.071z"/>
		<path fill="#94705D" d="M84.156,204.434l2.812,1.33c0.928,0.43,1.515,0.957,1.778,1.598c0.267,0.637,0.207,1.373-0.186,2.205
			c-0.285,0.609-0.665,1.045-1.142,1.309c-0.465,0.256-1.012,0.334-1.618,0.222c0.231,0.307,0.38,0.604,0.438,0.896
			c0.065,0.284,0.071,0.721,0.02,1.34c-0.031,0.528-0.052,1.084-0.071,1.658c-0.006,0.577,0,1.063,0.027,1.454
			c0.024,0.394,0.063,0.763,0.122,1.091l-1.806-0.847c-0.02-0.271-0.02-0.539,0-0.813c0.007-0.274,0.053-0.737,0.111-1.408
			l0.095-0.956c0.064-0.604,0.071-1.091,0.026-1.416c-0.053-0.345-0.175-0.613-0.367-0.82c-0.193-0.205-0.497-0.424-0.91-0.61
			l-0.412-0.188l-2.133,4.53l-1.426-0.676L84.156,204.434z M83.744,209.038l1.186,0.562c0.49,0.229,0.909,0.301,1.232,0.213
			c0.321-0.092,0.599-0.354,0.8-0.78c0.198-0.445,0.239-0.806,0.088-1.107c-0.147-0.312-0.477-0.578-0.991-0.826l-1.154-0.539
			L83.744,209.038z"/>
		<path fill="#94705D" d="M93.931,208.715l1.7,0.619l-0.419,11.479l-1.599-0.584l0.201-4.217l-2.793-1.023l-2.597,3.34l-1.566-0.567
			L93.931,208.715z M93.937,214.331l0.104-1.881c0.019-0.5,0.057-1.086,0.114-1.756c-0.245,0.395-0.579,0.869-1.004,1.426
			l-1.143,1.508L93.937,214.331z"/>
		<path fill="#94705D" d="M104.033,211.872l-2.179,8.996l3.866,0.939l-0.395,1.627l-5.395-1.303l2.565-10.625L104.033,211.872z"/>
		<path fill="#94705D" d="M111.367,213.415l1.787,0.283l1.793,11.348l-1.684-0.266l-0.62-4.178l-2.919-0.469l-1.923,3.785
			l-1.63-0.254L111.367,213.415z M112.444,218.934l-0.256-1.873c-0.078-0.5-0.149-1.078-0.215-1.752
			c-0.174,0.434-0.421,0.967-0.723,1.6l-0.824,1.695L112.444,218.934z"/>
		<path fill="#94705D" d="M125.417,215.102l-0.073,1.918c-0.713-0.533-1.469-0.813-2.274-0.854
			c-0.445-0.019-0.808,0.063-1.085,0.252c-0.27,0.182-0.419,0.438-0.424,0.768c-0.008,0.154,0.005,0.291,0.046,0.395
			c0.024,0.103,0.103,0.203,0.212,0.308c0.115,0.104,0.283,0.207,0.501,0.323c0.222,0.105,0.538,0.265,0.943,0.451
			c0.721,0.316,1.276,0.637,1.67,0.959c0.385,0.318,0.662,0.674,0.819,1.072c0.152,0.404,0.218,0.896,0.198,1.463
			c-0.019,0.543-0.13,1.037-0.329,1.477c-0.193,0.451-0.457,0.839-0.805,1.146c-0.343,0.316-0.748,0.561-1.219,0.723
			c-0.471,0.156-0.979,0.23-1.528,0.199c-1.077-0.035-2.03-0.322-2.87-0.85l0.086-2.033c0.947,0.684,1.889,1.045,2.83,1.086
			c0.407,0.014,0.774-0.047,1.096-0.193c0.335-0.137,0.593-0.342,0.78-0.606c0.186-0.265,0.283-0.571,0.303-0.924
			c0.008-0.32-0.025-0.58-0.123-0.779c-0.09-0.185-0.277-0.379-0.56-0.56c-0.278-0.188-0.71-0.407-1.284-0.67
			c-0.639-0.28-1.14-0.567-1.502-0.846c-0.373-0.283-0.631-0.588-0.767-0.928c-0.155-0.33-0.213-0.729-0.193-1.209
			c0.018-0.564,0.174-1.063,0.438-1.486c0.277-0.42,0.652-0.742,1.128-0.955c0.477-0.213,1.018-0.315,1.619-0.291
			C123.867,214.489,124.653,214.709,125.417,215.102z"/>
		<path fill="#94705D" d="M136.258,219.739c0.04,0.811-0.037,1.574-0.23,2.283c-0.199,0.707-0.495,1.34-0.897,1.869
			c-0.392,0.533-0.876,0.969-1.442,1.275c-0.561,0.317-1.18,0.492-1.852,0.522c-0.896,0.043-1.706-0.162-2.454-0.612
			c-0.754-0.457-1.354-1.097-1.813-1.949c-0.445-0.834-0.701-1.791-0.753-2.859c-0.054-1.059,0.102-2.035,0.463-2.928
			c0.359-0.896,0.882-1.609,1.574-2.133c0.687-0.537,1.475-0.818,2.364-0.865c0.896-0.053,1.723,0.146,2.477,0.602
			c0.754,0.457,1.347,1.1,1.804,1.945C135.95,217.729,136.2,218.674,136.258,219.739z M134.622,219.854
			c-0.034-0.58-0.13-1.102-0.304-1.58c-0.174-0.482-0.406-0.893-0.702-1.236c-0.298-0.334-0.646-0.594-1.039-0.762
			c-0.392-0.172-0.812-0.252-1.265-0.232c-0.586,0.041-1.103,0.232-1.545,0.588c-0.455,0.361-0.782,0.847-1.016,1.455
			c-0.224,0.607-0.315,1.308-0.275,2.086c0.058,1.164,0.389,2.107,1.007,2.816c0.599,0.717,1.358,1.057,2.269,1.006
			c0.585-0.035,1.103-0.227,1.554-0.588c0.449-0.361,0.791-0.854,1.023-1.475C134.557,221.305,134.66,220.616,134.622,219.854z"/>
		<path fill="#94705D" d="M142.016,213.801l0.277,1.916c-0.805-0.402-1.604-0.547-2.391-0.434c-0.453,0.065-0.78,0.213-1.025,0.438
			c-0.238,0.231-0.329,0.508-0.283,0.823c0.018,0.166,0.059,0.289,0.102,0.396c0.06,0.097,0.148,0.181,0.285,0.265
			c0.131,0.069,0.311,0.141,0.547,0.217c0.238,0.082,0.572,0.172,1.013,0.279c0.769,0.186,1.366,0.399,1.804,0.645
			c0.446,0.24,0.781,0.543,1.016,0.91c0.218,0.365,0.367,0.83,0.451,1.397c0.076,0.541,0.058,1.044-0.053,1.525
			c-0.115,0.465-0.316,0.894-0.593,1.262c-0.285,0.373-0.646,0.685-1.071,0.929c-0.438,0.235-0.928,0.396-1.47,0.481
			c-1.065,0.146-2.051,0.037-2.974-0.336l-0.282-2.005c1.045,0.5,2.043,0.689,2.979,0.562c0.399-0.065,0.76-0.188,1.059-0.387
			c0.287-0.201,0.509-0.451,0.645-0.748c0.143-0.289,0.18-0.606,0.129-0.957c-0.045-0.319-0.129-0.563-0.254-0.739
			c-0.128-0.181-0.34-0.334-0.65-0.455c-0.314-0.14-0.771-0.273-1.387-0.427c-0.675-0.17-1.225-0.354-1.636-0.565
			c-0.413-0.207-0.724-0.465-0.93-0.769c-0.198-0.305-0.335-0.69-0.399-1.155c-0.082-0.562-0.025-1.076,0.162-1.541
			c0.193-0.472,0.516-0.851,0.947-1.154c0.431-0.297,0.943-0.484,1.542-0.568C140.379,213.493,141.197,213.563,142.016,213.801z"/>
		<path fill="#94705D" d="M143.1,213.245l6.652-1.467l0.355,1.637l-2.541,0.562l1.998,9.045l-1.545,0.342l-1.998-9.038l-2.563,0.563
			L143.1,213.245z"/>
		<path fill="#94705D" d="M150.629,211.534l5.604-1.697l0.474,1.58l-4.097,1.25l0.716,2.375l4.065-1.24l0.484,1.601l-4.061,1.229
			l0.998,3.295l4.104-1.252l0.487,1.615l-5.604,1.703L150.629,211.534z"/>
		<path fill="#94705D" d="M157.514,209.417l1.584-0.643l5.791,4.826c0.082,0.066,0.148,0.109,0.191,0.158
			c0.053,0.037,0.07,0.061,0.078,0.068l0.258,0.225l0.273,0.232c0.022,0.026,0.055,0.053,0.088,0.077
			c0.039,0.035,0.07,0.063,0.111,0.093c0.043,0.03,0.075,0.069,0.106,0.102c-0.304-0.6-0.58-1.191-0.818-1.793l-2.225-5.529
			l1.465-0.586l4.067,10.139l-1.465,0.59l-5.135-4.274l-0.41-0.373l-0.508-0.444l-0.477-0.429l-0.543-0.472
			c0.129,0.289,0.219,0.488,0.266,0.595l0.225,0.563l0.238,0.551c0.047,0.105,0.135,0.309,0.238,0.576l2.127,5.299l-1.461,0.592
			L157.514,209.417z"/>
		<path fill="#94705D" d="M167.299,205.204l4.734,9.857l-1.406,0.674l-4.738-9.85L167.299,205.204z"/>
		<path fill="#94705D" d="M168.885,204.454l2.844-1.584c1.615-0.893,2.834-0.604,3.656,0.869c0.494,0.889,0.48,1.764-0.033,2.629
			c0.322-0.076,0.646-0.096,0.947-0.066c0.297,0.023,0.586,0.107,0.844,0.228c0.26,0.138,0.504,0.312,0.736,0.537
			c0.225,0.226,0.426,0.502,0.604,0.832c0.33,0.586,0.513,1.158,0.531,1.713c0.012,0.552-0.115,1.054-0.406,1.511
			s-0.715,0.844-1.282,1.162l-3.119,1.731L168.885,204.454z M172.283,207.35l1.109-0.615c0.34-0.207,0.6-0.385,0.76-0.58
			c0.166-0.191,0.252-0.398,0.252-0.625c0-0.221-0.07-0.479-0.238-0.754c-0.234-0.418-0.504-0.645-0.822-0.678
			c-0.313-0.02-0.758,0.125-1.344,0.447l-0.969,0.547L172.283,207.35z M174.75,211.778l1.293-0.709
			c0.416-0.238,0.721-0.471,0.928-0.723c0.191-0.244,0.287-0.51,0.285-0.805c-0.01-0.291-0.105-0.611-0.313-0.979
			c-0.207-0.377-0.435-0.636-0.67-0.78c-0.246-0.14-0.529-0.189-0.857-0.132c-0.322,0.054-0.723,0.207-1.188,0.472l-1.154,0.641
			L174.75,211.778z"/>
		<path fill="#94705D" d="M177.047,199.672l5.887,9.203l-1.322,0.852l-5.887-9.213L177.047,199.672z"/>
		<path fill="#94705D" d="M179.84,197.793l5.387,7.499l3.236-2.326l0.982,1.379l-4.516,3.238l-6.369-8.873L179.84,197.793z"/>
		<path fill="#94705D" d="M185.164,193.741l6.846,8.523l-1.227,0.984l-6.852-8.523L185.164,193.741z"/>
		<path fill="#94705D" d="M186.496,192.729l2.117-1.941c0.563-0.518,1.158-0.896,1.766-1.117c0.605-0.225,1.23-0.309,1.857-0.258
			c0.631,0.064,1.262,0.262,1.881,0.617c0.621,0.344,1.219,0.828,1.793,1.455c0.76,0.822,1.27,1.67,1.549,2.545
			c0.275,0.877,0.287,1.727,0.037,2.537c-0.244,0.826-0.734,1.574-1.488,2.26l-2.117,1.945L186.496,192.729z M193.898,198.458
			l0.889-0.817c0.518-0.471,0.857-0.986,1.037-1.547c0.174-0.557,0.162-1.133-0.023-1.721c-0.201-0.588-0.57-1.186-1.117-1.789
			c-0.817-0.887-1.662-1.377-2.531-1.473c-0.87-0.098-1.694,0.213-2.477,0.92l-0.908,0.838L193.898,198.458z"/>
		<path fill="#94705D" d="M194.57,184.887l1.217-1.348l10.482,4.719l-1.144,1.25l-3.83-1.766l-1.996,2.213l2.121,3.66l-1.123,1.232
			L194.57,184.887z M199.785,187.002l-1.723-0.805c-0.451-0.207-0.976-0.465-1.58-0.781c0.271,0.389,0.59,0.877,0.955,1.482
			l0.967,1.619L199.785,187.002z"/>
		<path fill="#94705D" d="M198.455,180.512l1.721-2.291c0.459-0.617,0.969-1.102,1.523-1.43c0.559-0.336,1.154-0.531,1.787-0.586
			c0.623-0.066,1.287,0.02,1.951,0.25c0.684,0.227,1.358,0.592,2.037,1.096c0.896,0.67,1.553,1.41,1.985,2.221
			c0.435,0.809,0.604,1.635,0.517,2.486c-0.082,0.844-0.435,1.678-1.039,2.486l-1.734,2.311L198.455,180.512z M206.783,184.78
			l0.732-0.969c0.409-0.559,0.661-1.133,0.727-1.723c0.07-0.578-0.039-1.139-0.342-1.682c-0.291-0.547-0.771-1.063-1.43-1.553
			c-0.964-0.717-1.884-1.043-2.763-0.98c-0.862,0.07-1.617,0.529-2.254,1.373l-0.735,0.988L206.783,184.78z"/>
		<path fill="#94705D" d="M204.877,171.536l3.396-5.885l1.465,0.838l-1.309,2.258l8.008,4.627l-0.787,1.367l-8.008-4.635
			l-1.316,2.27L204.877,171.536z"/>
		<path fill="#94705D" d="M211.775,158.295l5.916,2.779c0.893,0.426,1.588,0.902,2.092,1.451c0.5,0.547,0.797,1.145,0.881,1.793
			c0.084,0.65-0.045,1.324-0.381,2.047c-0.521,1.111-1.275,1.781-2.248,2.02c-0.98,0.227-2.16,0.021-3.553-0.639l-5.854-2.748
			l0.67-1.43l5.752,2.701c0.472,0.225,0.902,0.381,1.283,0.465c0.381,0.09,0.722,0.104,1.021,0.051
			c0.301-0.043,0.563-0.168,0.776-0.355c0.22-0.182,0.406-0.443,0.562-0.779c0.606-1.277,0.047-2.326-1.676-3.141l-5.91-2.771
			L211.775,158.295z"/>
		<path fill="#94705D" d="M212.271,157.077l1.063-2.912c0.354-0.955,0.83-1.588,1.442-1.91c0.605-0.322,1.347-0.322,2.205-0.014
			c0.631,0.24,1.097,0.574,1.4,1.025c0.303,0.447,0.424,0.98,0.359,1.594c0.289-0.266,0.574-0.432,0.852-0.518
			c0.281-0.09,0.721-0.135,1.346-0.139c0.523-0.016,1.084-0.039,1.658-0.08c0.572-0.037,1.057-0.082,1.443-0.146
			c0.393-0.066,0.754-0.129,1.074-0.219l-0.682,1.873c-0.271,0.041-0.531,0.066-0.808,0.078c-0.274,0.014-0.752,0.014-1.416,0.008
			l-0.961-0.012c-0.617-0.008-1.09,0.025-1.427,0.104c-0.327,0.066-0.592,0.217-0.784,0.428c-0.187,0.213-0.361,0.531-0.519,0.971
			l-0.16,0.424l4.713,1.727l-0.534,1.471L212.271,157.077z M216.883,157.088l0.457-1.23c0.186-0.508,0.211-0.922,0.096-1.244
			c-0.117-0.328-0.399-0.562-0.852-0.729c-0.445-0.166-0.813-0.166-1.102,0.014c-0.291,0.168-0.535,0.521-0.728,1.057l-0.446,1.193
			L216.883,157.088z"/>
		<path fill="#94705D" d="M215.455,147.731l10.471,3.104l-0.443,1.504l-10.471-3.113L215.455,147.731z"/>
		<path fill="#94705D" d="M217.539,141.069l1.863,0.439c-0.658,0.605-1.078,1.303-1.271,2.07c-0.096,0.445-0.084,0.818,0.039,1.119
			c0.137,0.305,0.354,0.492,0.672,0.561c0.152,0.047,0.289,0.061,0.393,0.041c0.109-0.014,0.218-0.061,0.349-0.154
			c0.117-0.098,0.258-0.24,0.412-0.434c0.147-0.199,0.362-0.477,0.625-0.846c0.453-0.643,0.877-1.127,1.258-1.449
			c0.388-0.324,0.793-0.527,1.211-0.6c0.435-0.076,0.923-0.051,1.478,0.078c0.529,0.137,0.988,0.328,1.393,0.605
			c0.4,0.283,0.717,0.625,0.961,1.025c0.25,0.395,0.414,0.838,0.471,1.33c0.07,0.486,0.045,1.01-0.086,1.537
			c-0.242,1.053-0.707,1.93-1.389,2.654l-1.98-0.473c0.857-0.801,1.385-1.65,1.605-2.574c0.092-0.398,0.096-0.773,0.025-1.113
			c-0.076-0.355-0.232-0.652-0.447-0.877c-0.223-0.24-0.508-0.395-0.848-0.471c-0.316-0.082-0.566-0.09-0.787-0.035
			c-0.207,0.055-0.424,0.201-0.658,0.436c-0.238,0.236-0.541,0.623-0.895,1.141c-0.414,0.566-0.781,1.01-1.13,1.313
			c-0.35,0.313-0.698,0.498-1.059,0.582c-0.359,0.076-0.763,0.064-1.22-0.051c-0.561-0.129-1.012-0.363-1.379-0.717
			c-0.36-0.348-0.604-0.779-0.721-1.295c-0.123-0.502-0.117-1.059,0.025-1.645C216.637,142.473,217.004,141.741,217.539,141.069z"/>
		<path fill="#94705D" d="M217.414,139.85l1.074-6.729l1.654,0.27l-0.404,2.566l9.127,1.451l-0.238,1.547l-9.135-1.438l-0.408,2.592
			L217.414,139.85z"/>
		<path fill="#94705D" d="M218.691,130.444l10.885,1.086l-0.156,1.559l-10.877-1.082L218.691,130.444z"/>
		<path fill="#94705D" d="M219.447,122.413l1.914,0.078c-0.256,0.373-0.443,0.715-0.562,1.025c-0.116,0.303-0.187,0.631-0.198,0.961
			c-0.021,0.611,0.123,1.174,0.442,1.676c0.315,0.502,0.781,0.908,1.373,1.205c0.588,0.309,1.258,0.465,2.006,0.496
			s1.418-0.078,2.031-0.33c0.616-0.244,1.103-0.6,1.455-1.076c0.368-0.463,0.557-1,0.579-1.596c0.015-0.367-0.022-0.725-0.141-1.08
			c-0.102-0.359-0.264-0.693-0.463-1.025l1.893,0.072c0.318,0.717,0.457,1.432,0.423,2.145c-0.033,0.906-0.306,1.699-0.826,2.408
			c-0.522,0.701-1.226,1.236-2.108,1.611c-0.896,0.373-1.869,0.531-2.933,0.496c-0.781-0.025-1.517-0.182-2.192-0.445
			c-0.685-0.258-1.271-0.619-1.773-1.064c-0.49-0.457-0.869-0.971-1.133-1.559c-0.254-0.586-0.367-1.221-0.344-1.877
			c0.014-0.367,0.065-0.715,0.149-1.037C219.125,123.18,219.266,122.819,219.447,122.413z"/>
		<path fill="#94705D" d="M219.008,118.686l-0.09-1.811l10.754-4.055l0.076,1.697l-3.957,1.449l0.135,2.965l4.094,1.102l0.078,1.662
			L219.008,118.686z M224.197,116.508l-1.779,0.637c-0.475,0.17-1.025,0.355-1.67,0.555c0.459,0.086,1.025,0.213,1.715,0.387
			l1.83,0.465L224.197,116.508z"/>
		<path fill="#94705D" d="M93.781,227.309l1.227,0.363l-0.389,3.705c-0.006,0.121-0.05,0.504-0.147,1.146
			c0.219-0.51,0.373-0.858,0.471-1.053l1.638-3.33l1.341,0.403l-0.471,3.681c-0.021,0.17-0.078,0.545-0.176,1.135
			c0.128-0.256,0.305-0.604,0.53-1.03l1.706-3.306l1.213,0.358l-3.455,6.513l-1.289-0.396l0.387-3.693
			c0.052-0.418,0.084-0.701,0.103-0.844c-0.013,0.035-0.038,0.084-0.07,0.143c-0.032,0.061-0.142,0.273-0.327,0.641l-1.71,3.273
			l-1.29-0.381L93.781,227.309z"/>
		<path fill="#94705D" d="M102.124,229.731l1.263,0.271l-0.082,3.727c0,0.123-0.021,0.502-0.06,1.152
			c0.174-0.523,0.31-0.885,0.387-1.082l1.359-3.449l1.366,0.297l-0.166,3.701c-0.008,0.168-0.039,0.547-0.085,1.141
			c0.104-0.268,0.251-0.619,0.438-1.072l1.438-3.434l1.238,0.262l-2.914,6.775l-1.316-0.283l0.091-3.719
			c0.007-0.418,0.026-0.703,0.026-0.85c-0.014,0.045-0.026,0.088-0.058,0.146c-0.026,0.065-0.116,0.285-0.271,0.666l-1.444,3.399
			l-1.307-0.276L102.124,229.731z"/>
		<path fill="#94705D" d="M110.646,231.491l1.283,0.168l0.213,3.721c0.006,0.119,0.024,0.502,0.038,1.148
			c0.134-0.531,0.231-0.91,0.297-1.111l1.075-3.547l1.387,0.176l0.136,3.711c0,0.166,0,0.552,0,1.144
			c0.09-0.276,0.201-0.637,0.354-1.103l1.161-3.539l1.251,0.162l-2.36,6.98l-1.327-0.174l-0.221-3.707
			c-0.019-0.424-0.024-0.709-0.03-0.852c-0.014,0.033-0.026,0.086-0.052,0.149c-0.014,0.07-0.092,0.295-0.22,0.681l-1.161,3.516
			l-1.328-0.166L110.646,231.491z"/>
		<path fill="#94705D" d="M120.749,239.065c-0.014,0.262-0.105,0.459-0.271,0.633c-0.161,0.16-0.349,0.234-0.568,0.225
			c-0.207-0.02-0.379-0.121-0.521-0.303c-0.138-0.19-0.2-0.406-0.189-0.662c0.021-0.246,0.111-0.453,0.279-0.619
			c0.169-0.168,0.347-0.246,0.561-0.227c0.14,0.014,0.265,0.059,0.379,0.152c0.111,0.086,0.201,0.195,0.259,0.346
			C120.735,238.752,120.761,238.911,120.749,239.065z"/>
		<path fill="#94705D" d="M125.659,240.04l-1.281-0.029l0.142-5.856l-1.283-0.03l0.032-1.373l3.868,0.104l-0.033,1.365l-1.301-0.031
			L125.659,240.04z"/>
		<path fill="#94705D" d="M133.537,232.709l0.154,4.785c0.013,0.418-0.006,0.76-0.063,1.037c-0.061,0.276-0.163,0.528-0.318,0.741
			c-0.182,0.265-0.412,0.478-0.707,0.638c-0.299,0.166-0.604,0.243-0.94,0.252c-0.253,0.018-0.492-0.017-0.704-0.086
			c-0.227-0.066-0.432-0.175-0.618-0.314c-0.18-0.135-0.343-0.309-0.479-0.51c-0.082-0.115-0.146-0.258-0.217-0.426
			c-0.053-0.16-0.097-0.341-0.129-0.511c-0.026-0.188-0.045-0.403-0.06-0.685l-0.147-4.789l1.282-0.036l0.168,4.842
			c0.009,0.328,0.052,0.565,0.128,0.713c0.071,0.125,0.163,0.228,0.305,0.306c0.137,0.086,0.277,0.115,0.426,0.108
			c0.174-0.008,0.32-0.051,0.451-0.146c0.136-0.098,0.22-0.223,0.27-0.375c0.061-0.156,0.077-0.373,0.073-0.664l-0.155-4.842
			L133.537,232.709z"/>
		<path fill="#94705D" d="M135.956,232.551l1.604-0.145c0.303-0.039,0.557-0.039,0.754-0.025c0.207,0.014,0.367,0.049,0.509,0.121
			c0.29,0.131,0.511,0.336,0.672,0.606c0.168,0.271,0.271,0.61,0.31,1.013c0.032,0.414,0,0.768-0.121,1.043
			c-0.109,0.272-0.324,0.512-0.627,0.709c0.123,0.049,0.227,0.108,0.315,0.188c0.086,0.092,0.174,0.221,0.265,0.4
			c0.09,0.18,0.2,0.418,0.315,0.723c0.194,0.492,0.368,0.889,0.517,1.199c0.154,0.307,0.334,0.631,0.541,0.953l-1.542,0.143
			c-0.14-0.303-0.256-0.592-0.346-0.863l-0.183-0.504c-0.16-0.457-0.289-0.787-0.393-1.01c-0.111-0.215-0.213-0.359-0.316-0.434
			c-0.113-0.078-0.239-0.105-0.394-0.084l-0.198,0.018l0.274,3.025l-1.287,0.117L135.956,232.551z M137.367,233.76l0.142,1.527
			l0.323-0.023c0.503-0.053,0.723-0.33,0.67-0.848c-0.02-0.236-0.096-0.424-0.227-0.547c-0.127-0.109-0.297-0.154-0.514-0.142
			L137.367,233.76z"/>
		<path fill="#94705D" d="M143.35,239.02l-1.018-7.164l1.283-0.186l1.012,7.17L143.35,239.02z"/>
		<path fill="#94705D" d="M149.063,230.948l0.252,1.389c-0.224-0.104-0.414-0.16-0.594-0.188c-0.16-0.027-0.336-0.02-0.516,0.006
			c-0.215,0.037-0.368,0.123-0.482,0.258c-0.104,0.125-0.144,0.271-0.104,0.445c0.021,0.123,0.071,0.219,0.163,0.289
			c0.082,0.066,0.25,0.162,0.515,0.264c0.658,0.26,1.095,0.473,1.31,0.627c0.444,0.312,0.735,0.791,0.851,1.433
			c0.096,0.465,0.076,0.903-0.045,1.301c-0.115,0.399-0.33,0.729-0.634,1.002c-0.303,0.265-0.676,0.437-1.106,0.517
			c-0.245,0.051-0.473,0.063-0.68,0.051c-0.21-0.021-0.47-0.07-0.778-0.162l-0.283-1.508c0.303,0.119,0.562,0.201,0.78,0.236
			c0.218,0.041,0.419,0.041,0.612,0.008c0.193-0.037,0.354-0.111,0.486-0.213c0.146-0.109,0.248-0.238,0.299-0.394
			c0.054-0.154,0.064-0.33,0.031-0.511c-0.037-0.213-0.127-0.381-0.27-0.51c-0.137-0.123-0.37-0.258-0.697-0.379
			c-0.373-0.141-0.631-0.254-0.76-0.309c-0.13-0.07-0.26-0.145-0.395-0.229c-0.381-0.256-0.611-0.65-0.707-1.166
			c-0.064-0.375-0.061-0.734,0.035-1.058c0.105-0.344,0.285-0.619,0.543-0.849c0.243-0.225,0.549-0.362,0.896-0.43
			C148.166,230.793,148.591,230.834,149.063,230.948z"/>
		<path fill="#94705D" d="M156.314,229.042l1.754,7.015l-1.244,0.31l-1.166-4.64l-0.574,2.224l-1.553-1.697l1.164,4.643
			l-1.256,0.318l-1.754-7.016l1.258-0.306l1.521,1.573l0.604-2.106L156.314,229.042z"/>
		<path fill="#94705D" d="M164.373,230.331c0.18,0.541,0.277,1.058,0.311,1.539c0.029,0.479-0.016,0.906-0.125,1.285
			c-0.115,0.373-0.297,0.689-0.553,0.953c-0.258,0.271-0.574,0.463-0.955,0.588c-0.367,0.115-0.729,0.133-1.082,0.072
			c-0.361-0.072-0.691-0.232-1-0.465c-0.303-0.246-0.588-0.561-0.846-0.969c-0.25-0.404-0.469-0.877-0.639-1.41
			c-0.172-0.543-0.275-1.053-0.301-1.529c-0.033-0.484,0.012-0.908,0.121-1.289c0.116-0.383,0.297-0.703,0.549-0.965
			c0.252-0.258,0.561-0.455,0.928-0.582c0.379-0.115,0.748-0.141,1.105-0.072c0.354,0.066,0.688,0.219,0.995,0.449
			c0.312,0.248,0.593,0.568,0.853,0.977C163.984,229.319,164.205,229.79,164.373,230.331z M163.068,230.735
			c-0.148-0.465-0.32-0.844-0.521-1.145c-0.197-0.305-0.412-0.508-0.645-0.641c-0.236-0.119-0.463-0.146-0.701-0.076
			c-0.232,0.076-0.414,0.231-0.527,0.463c-0.105,0.248-0.156,0.555-0.137,0.93c0.012,0.361,0.098,0.789,0.25,1.256
			c0.143,0.451,0.316,0.826,0.518,1.131c0.205,0.303,0.41,0.516,0.65,0.639c0.232,0.119,0.463,0.146,0.689,0.068
			c0.354-0.117,0.58-0.4,0.649-0.871C163.375,232.026,163.295,231.44,163.068,230.735z"/>
		<path fill="#94705D" d="M167.021,231.067l-0.445-1.189l1.74-0.662l0.459,1.187L167.021,231.067z"/>
		<path fill="#94705D" d="M171.875,223.692l0.555,1.287c-0.244-0.043-0.449-0.068-0.623-0.057c-0.168,0.014-0.33,0.057-0.5,0.129
			c-0.197,0.088-0.34,0.199-0.41,0.348c-0.082,0.146-0.082,0.303-0.014,0.473c0.047,0.113,0.123,0.197,0.221,0.248
			c0.101,0.047,0.289,0.101,0.564,0.144c0.699,0.104,1.17,0.213,1.412,0.315c0.512,0.213,0.898,0.617,1.156,1.219
			c0.188,0.438,0.264,0.869,0.238,1.285c-0.027,0.418-0.162,0.795-0.4,1.107c-0.232,0.328-0.561,0.58-0.967,0.754
			c-0.228,0.098-0.443,0.16-0.658,0.199c-0.213,0.021-0.469,0.027-0.791,0.021l-0.613-1.427c0.322,0.058,0.594,0.074,0.818,0.07
			c0.219-0.015,0.42-0.058,0.6-0.132c0.174-0.081,0.322-0.186,0.432-0.313c0.115-0.142,0.181-0.281,0.201-0.46
			c0.018-0.159-0.016-0.325-0.086-0.502c-0.082-0.19-0.199-0.342-0.367-0.438c-0.16-0.096-0.416-0.168-0.768-0.219
			c-0.398-0.061-0.662-0.1-0.811-0.137c-0.135-0.039-0.283-0.078-0.433-0.135c-0.426-0.166-0.733-0.496-0.955-0.984
			c-0.147-0.344-0.207-0.699-0.186-1.039c0.03-0.348,0.141-0.666,0.34-0.941c0.192-0.274,0.457-0.483,0.78-0.618
			C170.967,223.729,171.393,223.665,171.875,223.692z"/>
		<path fill="#94705D" d="M180.242,223.428c0.26,0.506,0.434,0.996,0.545,1.473c0.096,0.479,0.133,0.904,0.076,1.289
			c-0.064,0.389-0.193,0.736-0.408,1.033c-0.213,0.305-0.496,0.543-0.85,0.713c-0.349,0.178-0.695,0.262-1.058,0.248
			c-0.366-0.021-0.723-0.115-1.063-0.301c-0.342-0.197-0.664-0.471-0.979-0.834c-0.315-0.361-0.594-0.787-0.853-1.295
			c-0.252-0.504-0.432-0.988-0.536-1.465c-0.097-0.47-0.121-0.896-0.07-1.291c0.054-0.392,0.183-0.746,0.39-1.039
			c0.205-0.308,0.481-0.533,0.83-0.713c0.354-0.174,0.717-0.248,1.071-0.244c0.36,0.014,0.722,0.108,1.067,0.303
			c0.343,0.188,0.671,0.457,0.986,0.826C179.703,222.493,179.992,222.924,180.242,223.428z M179.014,224.026
			c-0.221-0.426-0.445-0.779-0.688-1.045c-0.238-0.264-0.49-0.445-0.734-0.535c-0.258-0.08-0.483-0.07-0.704,0.039
			c-0.226,0.109-0.375,0.289-0.445,0.541c-0.076,0.25-0.076,0.561,0,0.926c0.078,0.361,0.227,0.771,0.451,1.215
			c0.207,0.42,0.434,0.769,0.686,1.023c0.238,0.273,0.488,0.453,0.732,0.541c0.252,0.092,0.479,0.074,0.69-0.027
			c0.334-0.17,0.502-0.483,0.508-0.963C179.508,225.262,179.35,224.698,179.014,224.026z"/>
		<path fill="#94705D" d="M183.178,217.862l0.701,1.205c-0.242-0.01-0.457-0.006-0.625,0.02c-0.158,0.033-0.328,0.097-0.477,0.188
			c-0.187,0.108-0.32,0.238-0.381,0.399c-0.058,0.16-0.049,0.312,0.047,0.466c0.063,0.108,0.147,0.18,0.25,0.221
			c0.104,0.031,0.297,0.058,0.574,0.074c0.703,0.026,1.186,0.078,1.448,0.147c0.525,0.15,0.949,0.504,1.277,1.07
			c0.239,0.408,0.366,0.826,0.394,1.252c0.014,0.41-0.076,0.801-0.265,1.148c-0.205,0.344-0.488,0.637-0.877,0.848
			c-0.22,0.131-0.427,0.217-0.634,0.273c-0.196,0.059-0.469,0.088-0.776,0.109l-0.762-1.332c0.315,0.014,0.579,0.008,0.805-0.033
			c0.213-0.027,0.414-0.099,0.582-0.197c0.166-0.09,0.297-0.219,0.394-0.359c0.098-0.143,0.141-0.311,0.141-0.471
			c0-0.174-0.043-0.338-0.135-0.492c-0.109-0.186-0.246-0.314-0.42-0.385c-0.172-0.076-0.437-0.123-0.791-0.129
			c-0.4-0.012-0.672-0.031-0.818-0.047c-0.143-0.019-0.289-0.037-0.445-0.076c-0.432-0.113-0.787-0.406-1.057-0.877
			c-0.188-0.322-0.285-0.656-0.303-1.012c-0.021-0.342,0.057-0.67,0.219-0.967c0.166-0.298,0.391-0.529,0.701-0.703
			C182.287,218.004,182.693,217.895,183.178,217.862z"/>
		<path fill="#94705D" d="M191.313,221.04l-1.084,0.697l-3.19-4.902l-1.074,0.691l-0.754-1.146l3.248-2.108l0.746,1.155l-1.08,0.701
			L191.313,221.04z"/>
		<path fill="#94705D" d="M197.32,216.813l-2.771,2.027l-4.262-5.838l2.771-2.019l0.805,1.108l-1.727,1.257l0.793,1.082l1.682-1.229
			l0.806,1.114l-1.674,1.226l1.043,1.432l1.729-1.27L197.32,216.813z"/>
		<path fill="#94705D" d="M202.854,212.377l-0.896,0.742l-3.097-1.563c-0.075-0.043-0.231-0.134-0.465-0.265
			c-0.225-0.121-0.41-0.244-0.563-0.33c0.195,0.226,0.313,0.355,0.346,0.4l0.154,0.182l2.236,2.713l-0.998,0.818l-4.6-5.576
			l1.053-0.867l2.731,1.418c0.312,0.16,0.634,0.341,0.986,0.533c-0.191-0.205-0.354-0.373-0.464-0.518l-2.018-2.455l0.992-0.816
			L202.854,212.377z"/>
		<path fill="#94705D" d="M205.025,210.442l-4.873-5.336l0.953-0.871l4.873,5.344L205.025,210.442z"/>
		<path fill="#94705D" d="M202.975,202.493l1.283-1.287c0.33-0.33,0.613-0.529,0.844-0.6c0.26-0.082,0.537-0.066,0.814,0.02
			c0.277,0.099,0.541,0.275,0.799,0.527c0.219,0.227,0.385,0.457,0.484,0.707c0.102,0.254,0.139,0.514,0.121,0.795
			c0.721-0.205,1.406,0.016,2.043,0.658c0.195,0.188,0.344,0.379,0.471,0.6c0.115,0.205,0.205,0.42,0.258,0.633
			c0.045,0.211,0.059,0.424,0.031,0.615c-0.023,0.17-0.09,0.338-0.186,0.498c-0.097,0.148-0.252,0.342-0.482,0.57l-1.369,1.371
			L202.975,202.493z M204.832,202.526l1,1l0.314-0.324c0.147-0.141,0.205-0.295,0.192-0.457c-0.006-0.166-0.098-0.326-0.271-0.494
			c-0.316-0.324-0.609-0.35-0.896-0.071L204.832,202.526z M206.746,204.434l1.283,1.285l0.342-0.336
			c0.373-0.375,0.336-0.775-0.098-1.219c-0.433-0.414-0.826-0.439-1.193-0.066L206.746,204.434z"/>
		<path fill="#94705D" d="M214.805,200.493l-2.16,2.42l-5.383-4.822l0.857-0.958l4.365,3.912l1.303-1.459L214.805,200.493z"/>
		<path fill="#94705D" d="M218.641,195.833l-2.141,2.675l-5.639-4.528l2.149-2.676l1.064,0.863l-1.345,1.658l1.056,0.852
			l1.301-1.635l1.07,0.865l-1.302,1.629l1.381,1.111l1.339-1.676L218.641,195.833z"/>
		<path fill="#94705D" d="M220.529,192.024c0.207,0.143,0.334,0.324,0.389,0.557c0.057,0.225,0.023,0.424-0.111,0.598
			c-0.123,0.162-0.305,0.258-0.533,0.285c-0.231,0.018-0.453-0.047-0.651-0.195c-0.199-0.154-0.328-0.344-0.388-0.568
			c-0.053-0.227-0.014-0.426,0.109-0.598c0.084-0.111,0.187-0.195,0.328-0.246c0.137-0.039,0.283-0.051,0.43-0.023
			C220.26,191.856,220.408,191.92,220.529,192.024z"/>
		<path fill="#94705D" d="M218.68,183.45l1.205,0.809c-0.344,0.135-0.592,0.32-0.76,0.572c-0.168,0.242-0.234,0.52-0.193,0.813
			c0.031,0.295,0.166,0.598,0.404,0.895c0.238,0.307,0.549,0.586,0.953,0.852c0.408,0.27,0.783,0.445,1.154,0.547
			c0.383,0.092,0.709,0.102,1,0.006c0.283-0.074,0.518-0.248,0.684-0.508c0.09-0.123,0.141-0.244,0.17-0.379
			c0.031-0.129,0.043-0.305,0.043-0.504l1.205,0.811c-0.031,0.348-0.154,0.697-0.379,1.025c-0.221,0.33-0.49,0.588-0.826,0.764
			c-0.33,0.166-0.695,0.262-1.109,0.287c-0.403,0.008-0.838-0.061-1.289-0.225c-0.465-0.143-0.92-0.367-1.371-0.68
			c-0.473-0.305-0.864-0.641-1.18-1.01c-0.317-0.367-0.549-0.734-0.711-1.127c-0.146-0.398-0.205-0.781-0.168-1.148
			c0.033-0.379,0.16-0.723,0.387-1.064C218.094,183.893,218.35,183.645,218.68,183.45z"/>
		<path fill="#94705D" d="M225.385,179.12c0.49,0.289,0.908,0.6,1.256,0.936c0.342,0.34,0.603,0.688,0.769,1.041
			c0.159,0.35,0.243,0.711,0.225,1.084c-0.018,0.367-0.12,0.723-0.319,1.064c-0.195,0.338-0.445,0.592-0.763,0.779
			c-0.303,0.193-0.657,0.297-1.051,0.322c-0.394,0.027-0.813-0.02-1.271-0.154c-0.457-0.131-0.934-0.334-1.42-0.625
			c-0.487-0.285-0.908-0.594-1.25-0.936c-0.342-0.334-0.594-0.678-0.768-1.037c-0.166-0.361-0.256-0.715-0.238-1.082
			c0.006-0.361,0.109-0.711,0.309-1.053c0.201-0.332,0.451-0.605,0.763-0.791c0.312-0.195,0.658-0.297,1.051-0.33
			c0.392-0.027,0.826,0.021,1.283,0.148C224.418,178.622,224.895,178.834,225.385,179.12z M224.682,180.293
			c-0.418-0.252-0.807-0.42-1.152-0.504c-0.35-0.084-0.651-0.109-0.905-0.047c-0.256,0.072-0.442,0.209-0.572,0.414
			c-0.114,0.211-0.147,0.451-0.069,0.701c0.069,0.25,0.238,0.514,0.504,0.775c0.256,0.264,0.604,0.521,1.031,0.768
			c0.403,0.244,0.793,0.396,1.135,0.488c0.354,0.09,0.649,0.109,0.908,0.037c0.258-0.057,0.442-0.186,0.563-0.406
			c0.191-0.313,0.152-0.682-0.098-1.074C225.77,181.045,225.318,180.667,224.682,180.293z"/>
		<path fill="#94705D" d="M229.658,177.094c0.211,0.115,0.375,0.283,0.463,0.488c0.092,0.225,0.08,0.42-0.02,0.605
			c-0.103,0.197-0.263,0.311-0.488,0.371c-0.225,0.057-0.451,0.025-0.672-0.094c-0.226-0.113-0.379-0.281-0.471-0.502
			c-0.084-0.215-0.076-0.412,0.02-0.604c0.066-0.117,0.168-0.213,0.283-0.285c0.129-0.072,0.271-0.102,0.434-0.098
			C229.354,176.977,229.51,177.016,229.658,177.094z"/>
		<path fill="#94705D" d="M226.551,168.862l1.314,0.625c-0.322,0.188-0.547,0.42-0.67,0.684c-0.129,0.266-0.148,0.541-0.078,0.832
			c0.084,0.291,0.266,0.568,0.535,0.824c0.277,0.264,0.631,0.504,1.07,0.703c0.434,0.205,0.838,0.32,1.221,0.373
			c0.379,0.033,0.707-0.014,0.983-0.141c0.271-0.125,0.472-0.326,0.607-0.604c0.057-0.131,0.098-0.268,0.102-0.402
			c0.007-0.129,0-0.303-0.03-0.508l1.319,0.625c0.021,0.359-0.059,0.715-0.225,1.074c-0.168,0.354-0.408,0.652-0.703,0.865
			c-0.302,0.23-0.649,0.375-1.058,0.443c-0.399,0.078-0.84,0.072-1.315-0.012s-0.961-0.23-1.453-0.471
			c-0.515-0.238-0.951-0.521-1.317-0.826c-0.359-0.312-0.65-0.658-0.857-1.018c-0.205-0.373-0.322-0.742-0.348-1.109
			c-0.015-0.385,0.063-0.748,0.229-1.109C226.029,169.389,226.254,169.112,226.551,168.862z"/>
		<path fill="#94705D" d="M227.355,166.758l0.594-1.488c0.117-0.283,0.227-0.516,0.33-0.684c0.106-0.166,0.219-0.297,0.348-0.393
			c0.244-0.201,0.521-0.303,0.838-0.322c0.314-0.025,0.67,0.045,1.045,0.191c0.385,0.158,0.674,0.35,0.869,0.582
			c0.191,0.221,0.309,0.516,0.348,0.871c0.099-0.086,0.207-0.152,0.316-0.182c0.109-0.045,0.264-0.064,0.465-0.059
			c0.205,0.008,0.471,0.014,0.787,0.049c0.527,0.051,0.967,0.08,1.32,0.08c0.344,0.008,0.703-0.006,1.084-0.041l-0.572,1.428
			c-0.336-0.006-0.646-0.033-0.93-0.07l-0.521-0.07c-0.484-0.08-0.854-0.102-1.092-0.111c-0.232-0.006-0.41,0.016-0.527,0.084
			c-0.102,0.061-0.195,0.162-0.258,0.311l-0.072,0.182l2.824,1.133l-0.484,1.195L227.355,166.758z M229.076,166.063l1.428,0.568
			l0.121-0.303c0.182-0.465,0.033-0.785-0.443-0.979c-0.231-0.09-0.426-0.104-0.588-0.047c-0.162,0.061-0.285,0.195-0.369,0.393
			L229.076,166.063z"/>
		<path fill="#BBCA98" d="M226.248,104.575c0,1.592-1.303,2.889-2.902,2.889c-1.59,0-2.887-1.297-2.887-2.889
			c0-1.604,1.297-2.902,2.887-2.902C224.945,101.672,226.248,102.971,226.248,104.575z"/>
		<path fill="#FFFFFF" d="M71.547,95.28v1.252c-0.626-0.195-1.301-0.266-2.012-0.266c-1.373,0-2.424,0.348-3.134,1.076
			c-0.373,0.381-0.657,1.09-0.863,2.16c-0.064,0.314-0.07,0.582-0.07,0.865c0,1.469,0.483,2.523,1.495,3.215
			c0.664,0.439,1.593,0.65,2.792,0.65c0.599,0,1.186-0.088,1.792-0.25v1.213c-0.626,0.199-1.438,0.301-2.456,0.301
			c-0.883,0-1.761-0.102-2.656-0.287c-0.947-0.201-1.65-0.471-2.128-0.781c-0.612-0.428-1.089-1.006-1.399-1.717
			c-0.36-0.852-0.541-1.643-0.541-2.396c0-1.496,0.445-2.734,1.334-3.707c0.446-0.492,1.129-0.885,2.032-1.186
			c0.896-0.285,1.927-0.453,3.062-0.453C69.755,94.969,70.671,95.079,71.547,95.28z"/>
		<path fill="#FFFFFF" d="M74.531,103.622c1.154,0.379,2.114,0.549,2.876,0.549c0.896,0,1.565-0.17,2.012-0.529
			c0.361-0.266,0.555-0.639,0.555-1.098c-0.072-0.393-0.427-0.783-1.039-1.197c-0.394-0.232-1.038-0.568-1.946-0.969
			c-0.974-0.424-1.69-0.799-2.16-1.102c-0.573-0.406-0.89-0.785-0.941-1.143l-0.064-0.559c-0.058-0.742,0.315-1.348,1.181-1.832
			c0.883-0.52,2.101-0.773,3.661-0.773c1.083,0,2.14,0.115,3.186,0.344v1.359c-0.685-0.277-1.496-0.406-2.451-0.406
			c-1.767,0-2.63,0.471-2.63,1.443c0,0.303,0.199,0.574,0.612,0.832c0.174,0.131,0.548,0.316,1.154,0.594
			c0.206,0.115,0.561,0.291,1.077,0.555c1.153,0.572,1.966,1.037,2.437,1.379c0.593,0.451,0.889,0.895,0.889,1.365
			c0,1.387-0.889,2.297-2.655,2.742c-0.839,0.199-1.702,0.32-2.618,0.32c-1.289,0-2.327-0.166-3.133-0.488v-1.386H74.531z"/>
		<path fill="#FFFFFF" d="M85.04,95.084h9.721v1.182h-3.302v9.076h-2.998v-9.076H85.04V95.084z"/>
		<path fill="#C4E86B" d="M44.639,124.489c0,45.934,36.855,83.167,82.324,83.167c45.461,0,82.322-37.234,82.322-83.167
			c0-45.932-36.861-83.162-82.322-83.162C81.494,41.327,44.639,78.557,44.639,124.489z"/>
		
			<linearGradient id="SVGID_1_" gradientUnits="userSpaceOnUse" x1="280.9238" y1="197.147" x2="186.2583" y2="120.2317" gradientTransform="matrix(1 0 0 -1 -156 279.665)">
			<stop  offset="0" style="stop-color:#C4E86B"/>
			<stop  offset="1" style="stop-color:#EAF6C4"/>
		</linearGradient>
		<path fill="url(#SVGID_1_)" d="M104.6,44.467c38.485-10.605,70.693,5.266,90.531,33.367
			c-51.613,16.027-31.746,36.139-74.306,71.314c-29.171,24.096-47.331,16.928-68.567,10.25
			C31.338,112.704,55.946,57.875,104.6,44.467z"/>
		<g>
			<path fill="#FFFFFF" d="M74.461,96.409v1.23c-0.606-0.188-1.276-0.256-1.979-0.256c-1.347,0-2.392,0.34-3.088,1.053
				c-0.367,0.383-0.651,1.08-0.851,2.135c-0.064,0.311-0.077,0.568-0.077,0.854c0,1.438,0.483,2.48,1.481,3.164
				c0.652,0.434,1.567,0.637,2.754,0.637c0.593,0,1.174-0.082,1.76-0.242v1.191c-0.606,0.201-1.412,0.303-2.424,0.303
				c-0.857,0-1.729-0.102-2.617-0.289c-0.922-0.199-1.619-0.465-2.083-0.768c-0.605-0.42-1.076-0.992-1.379-1.697
				c-0.361-0.838-0.542-1.611-0.542-2.352c0-1.477,0.438-2.699,1.321-3.654c0.439-0.486,1.108-0.871,1.991-1.174
				c0.891-0.277,1.909-0.438,3.024-0.438C72.701,96.106,73.598,96.215,74.461,96.409z"/>
			<path fill="#FFFFFF" d="M77.407,104.622c1.134,0.379,2.082,0.547,2.83,0.547c0.883,0,1.539-0.168,1.985-0.527
				c0.36-0.254,0.547-0.627,0.547-1.072c-0.07-0.387-0.432-0.773-1.03-1.178c-0.388-0.24-1.019-0.561-1.915-0.955
				c-0.967-0.418-1.669-0.787-2.127-1.09c-0.568-0.406-0.877-0.779-0.922-1.127l-0.072-0.547c-0.058-0.73,0.316-1.338,1.154-1.807
				c0.884-0.521,2.083-0.76,3.611-0.76c1.076,0,2.114,0.109,3.151,0.336v1.344c-0.676-0.283-1.482-0.402-2.423-0.402
				c-1.729,0-2.585,0.457-2.585,1.414c0,0.297,0.198,0.568,0.606,0.822c0.159,0.127,0.533,0.301,1.127,0.59
				c0.2,0.105,0.554,0.285,1.064,0.543c1.134,0.566,1.934,1.014,2.397,1.359c0.58,0.439,0.876,0.891,0.876,1.342
				c0,1.375-0.876,2.264-2.61,2.701c-0.831,0.199-1.683,0.322-2.578,0.322c-1.271,0-2.296-0.174-3.088-0.488v-1.367H77.407z"/>
			<path fill="#FFFFFF" d="M87.754,96.215h9.58v1.168h-3.256v8.936h-2.954v-8.936h-3.37V96.215z"/>
		</g>
		<g>
			<path fill="#648C1A" d="M179.773,65.282c-9.277-1.74-30.015,5.463-44.037,12.348c-1.34,0.527-2.525,1.096-3.508,1.727
				c-5.53,2.914-9.935,4.777-12.514,9.594c-0.417,0.908-0.639,1.553-0.966,2.178c-1.708,4.738-3.661,9.734-5.236,12.844
				c-0.579,1.152-1.597,2.441-2.726,3.66c-1.444,1.297-4.243,3.539-6.822,5.094c-2.067,1.012-4.434,2.766-8.792,4.885
				c-17.979,8.76-9.916,11.006-6.949,15.518c2.682,4.102,2.649,3.172-0.175,7.465c-1.042,1.6-2.437,2.283-2.681,4.256
				c-0.29,1.979,3.592,3.08,3.5,3.721c-0.071,0.422-1.806,0.068-3.481,1.104c-1.682,1.053-1.722,2.586-1.521,3.514
				c0.188,0.922,0.844,4.504,1.012,6.248c0.155,1.74-0.625,2.438-1.862,3.889c-1.231,1.451-4.01,2.404-4.822,7.258
				c-0.832,4.861,1.824,7.91,4.771,10.242c6.151,4.869,12.776,3.193,12.776,3.193c6.977-2.582,13.701-6.732,20.069-11.859
				l2.883-54.258l1.636,50.42c5.435-4.889,10.579-10.418,15.369-16.215l-2.248-35.225l5.446,31.25
				c5.602-7.146,10.656-14.553,15.027-21.533l0.689-18.426l2.225,13.705c9.719-16.16,15.439-28.955,15.439-28.955
				c-3.773,12.557-14.197,34.352-14.197,34.352l15.846-3.785l-19.609,8.816l-9.594,15.486l41.744-12.143l-43.839,14.66l-13.77,20.52
				l54.667-18.852l-62.172,24.705L100.44,197.28l13.023,0.045c37.866,0,71.327-30.687,78.837-54.137
				C199.811,119.737,186.467,66.547,179.773,65.282z"/>
			<g>
				<path fill="#648C1A" d="M127.498,181.079c-0.239-1.4-1.039-2.637-2.263-3.248c-3.03-1.529-5.25,0.449-7.401,2.287
					c-2.533,2.168-5.099,4.307-7.696,6.4c-5.81,4.693-11.786,9.213-18.026,13.313c1.566,0.66,4.656,1.947,6.937,2.84
					c1.077-0.86,2.076-1.871,3.05-2.563c2.488-1.76,5.138-3.279,7.86-4.668c4.118-2.119,8.482-3.441,12.692-5.285
					C125.738,188.807,128.072,184.438,127.498,181.079z"/>
			</g>
		</g>
	</g>
</g>
</svg>
